<?xml version="1.0" encoding="utf-8"?>
<svg version="1.1" xmlns="http://www.w3.org/2000/svg" xmlns:xlink="http://www.w3.org/1999/xlink" x="0px" y="0px"
	width="370.4821px" height="556.5px" viewBox="0 0 370.4821 556.5" style="enable-background:new 0 0 370.4821 556.5;"
	xml:space="preserve">
	<style type="text/css">
		.st0 {
			display: none;
		}

		.st1 {
			fill: #AA4B68;
		}

		.st2 {
			fill: #FBD4C0;
		}

		.st3 {
			fill: #FAD1BC;
		}

		.st4 {
			fill: #E2BDAC;
		}

		.st5 {
			fill: #C4B9E7;
		}

		.st6 {
			fill: #ABA0CE;
		}

		.st7 {
			fill: none;
			stroke: #808089;
			stroke-linecap: round;
			stroke-miterlimit: 10;
		}

		.st8 {
			fill: none;
			stroke: #7B7BAF;
			stroke-miterlimit: 10;
		}

		.st9 {
			fill: #ECE9F2;
		}

		.st10 {
			fill: #FCD4C1;
		}

		.st11 {
			fill: #F39DB0;
		}

		.st12 {
			fill: #F69EB1;
		}

		.st13 {
			fill: #B15171;
		}

		.st14 {
			fill: #C12749;
		}

		.st15 {
			fill: #C5C89F;
		}

		.st16 {
			fill: #669257;
		}

		.st17 {
			fill: #111B18;
		}

		.st18 {
			fill: #3F5A39;
		}

		.st19 {
			fill: #C4C79E;
		}

		.st20 {
			fill: #B55370;
		}

		.st21 {
			fill: #B65373;
		}

		.st22 {
			fill: none;
			stroke: #353538;
			stroke-width: 0.25;
			stroke-linecap: round;
			stroke-miterlimit: 10;
		}

		.st23 {
			fill: none;
			stroke: #353538;
			stroke-linecap: round;
			stroke-miterlimit: 10;
		}

		.st24 {
			fill: none;
			stroke: #353538;
			stroke-width: 0.25;
			stroke-miterlimit: 10;
		}
	</style>
	<g id="YunoGasai">
		<path class="st1" d="M218.4981,308.5163L224.0672,295c0,0,2.2917,5.0625,4.2762,13.2222
		c3.7198,15.2947,9.144,40.6928,9.3072,60.2778c13.25,32.3333,35,102.75,35,102.75l-28.3691,2.8607
		c-0.8824,0.089-1.7631-0.1846-2.4397-0.7579l-4.9411-4.1862c0,0-4.25-38.9167-2-59.1667s-6.125-29.125-6.125-29.125
		S227.9981,353.7663,218.4981,308.5163z" />
		<g id="corps">
			<path id="visage" class="st2"
				d="M179.9006,159.5c0,0-17.5-3-38-20.8333c-6.5-11.5-18.8333-68.6667-18.8333-68.6667
			l115.6667-17.1667l-16.8333,57.8333c0,0-3.3125,4.1458-7.25,22.3333C211.0256,140.125,187.4631,157.5,179.9006,159.5z" />
			<path id="bras" class="st3"
				d="M222.7756,203.375c0,0,12-4,20.375-0.125c6,5.125,10.75,13.375,13.25,43.5
			c2.5,30.125,4.5,99,15,123.25c3.5,23,3.5,27.5,3.5,27.5s-69.25,26-134.5,25.75c-5.5,3.5-10.5,6.25-26.75,6.25
			c-3.125,3.75-11.5,11-13.5,0c1.3125-2.9375,3.5-4.8333,3.5-4.8333l1.3125-0.6042c0,0-4.3789,1.2902-5.1374-4.4695
			c-8.4668-3.5097-37.6592-21.1942-37.6592-21.1942l35.6753-126.4278l6.5588-60.4711l28-62l-16.8333,225.9167l7.8333,0.8958
			c0,0,22.5,14.4375,26.5,18.8125c8.5,0.875,43.75,0.375,78.875-14.25c8.5-2.875,9.25-2.75,9.25-2.75S233.5672,316,224.0672,295
			c0,0-4.4792,8.4375-8.1667,0.875s-9.375-26.7083-8.625-33.625C207.1089,255.4167,206.8172,236.4583,222.7756,203.375z" />
		</g>
		<g>
			<g>
				<path class="st4"
					d="M218.4981,260.5c1.8418,12.3757,3.6837,24.7514,5.5255,37.1271c-0.2417-1.6243,0.2434-3.3648,0-5
				c-1.8418-12.3757-3.6837-24.7514-5.5255-37.1271C218.7398,257.1243,218.2547,258.8648,218.4981,260.5L218.4981,260.5z" />
			</g>
		</g>
		<g id="robe">
			<path id="haut" class="st5" d="M107.9739,315.1893c0,0-7.6513-7.5667-10.5944-28.4393c-2.0408-14.4734-2.7289-20.375,8.1878-36.75
			c7.0833-13.5833,28.6667-45.6667,28.6667-45.6667l98.8333-15.1667L230.7339,202l-7,2c0,0-24.1667,43.3333-13,74.3333
			c4.1667,11.1667,7,26.6667,13.3333,16.6667c-2.5,8.1667-11.5,25.6667-11.5,25.6667s-16.3691,39.6379-11.5358,69.1379
			c-10.7243,2.1963-13.4642,6.5288-50.6309,5.3621c-14.8333-9.3333-27-18.8542-27-18.8542L107.9739,315.1893z" />
			<path id="bas_1_" class="st6" d="M36.4994,557.1667c0,0,10.7502-26.4952,23.9308-55.9499
			c16.0837-35.9422,34.945-78.892,39.5261-80.8559c0.0884-0.0379,0.3668,1.4189,0.4442,1.4107
			c1.7061,2.1249-0.6667,0.3118,4.5625,2.2909c-1.4375,3.0625-7.6875,4.8125-2.0625,9.4375c4,2.5,7.625-1.5,9.625-3.75
			s8.625,2.875,27.875-6.5c21.2849-0.7791,53.9405-4.9218,67.1905-7.2135c2,3.5,11.3095,19.2967,11.3095,19.2967L200.5672,557.5
			L36.4994,557.1667z" />
			<line id="fermeture_1_" class="st7" x1="140.3701" y1="423.8361" x2="136.7573" y2="493.3389" />
			<g id="boutons">
				<circle class="st8" cx="138.3172" cy="286.8333" r="2.1667" />
				<circle class="st8" cx="134.5672" cy="352.8333" r="2.125" />
				<circle class="st8" cx="122.9006" cy="504.5" r="2.1458" />
			</g>
		</g>
		<path id="blanc" class="st9" d="M134.8314,187.3181l24.0692-18.0681l50.375,4.625l-13.4063,55.375c0,0-25.375-0.5625-27,1.0938
		c-3.125,0.9688,6.4375,11.4063,8.625,15.75c-1.5026,4.1542-29.588,24.3914-32.7961,26.693
		c-0.1906,0.1367-0.3029,0.3508-0.3118,0.5852l-0.3315,8.7283c-0.0105,0.2761-0.3543,0.396-0.5342,0.1862L112.4006,246
		l11.0369-5.6857l-2.2461-15.5754c-0.0026-0.5626-0.9241-1.0783-1.4116-1.359l-3.2798-1.8884
		c-0.7282-0.4193-0.8693-1.4109-0.2869-2.0167l3.0208-3.1416L134.8314,187.3181z" />
		<path id="fermeture" class="st7" d="M145.0256,240.8125c0,0-1.4583,29.8542-1.2083,41.4375s-2.9167,68.4167-2.9167,68.4167
		s0.6667,22.5,0,38" />
		<path id="cou" class="st10" d="M152.7216,147.0096l1.0539,28.1154l0.7917,3.875c0,0-6.7917,11.75-6.6042,20.1875
		c-0.8125,8.375-4.75,40.6875-2.9375,41.625c2.125-1.5,26.375-38.8654,36.125-46.9014c8.25-8.9944,18.3708-20.3226,18.3708-20.3226
		l-3.9958-0.2135l-1.0325-22.1118C194.4931,151.2632,164.3761,154.9359,152.7216,147.0096z" />
		<g id="cheveux-avant">
			<path class="st11" d="M267.0211,89.5353c-5-4.5-16.83-11.84-17.5-19.17c2.83,0.83,13.67,2.5,15.5,1c-4.67-2.5-18.67-6-24.83-26.83
			c-5.67-10.5-20.34-35.84-63.17-31.17c-22-3.62-73.5,9.67-71.5,59.33l-7.25,7.17l10.25-0.38c0,0-13.25,16.13-19.62,17.38
			c5.74,2,19,1.12,19,1.12l-6.5,9.72c0,0,2.37,1.78,10.62-6.46c-0.12,4.37,5.75,48.87,13,58.12c-3.88,9.75-15,41.33-20.67,47.42
			c-5.66,6.08-67.16,108.91-67.16,121.91c0,0-10,31.67-8,48.34c2,16.66,4.83,52.58,2.08,55.83s-1.25,18.25-8.25,46.75
			s-0.1218,72.63,4.6282,76.88c3.25-8.5,5.3718-17.13,7.3718-33.13c1.25,14.25,44.2867-108.37,39.9167-121.75
			c-1.4157-11.3233-3.6591-19.3279-3.6591-19.3279s27.0924-54.3021,25.5924-89.5021c-0.84-6.55,0.64-7.75,0-16.26
			c-0.63-8.33,7.03-22.54,7.03-22.54s3.12-43.2,4.45-44.37c1.84-5.17,6.5-15.25,13.5-14.17c0.17,6.17-0.83,34.3-0.83,34.3
			s3.75,36.12,6.67,38.4499c2.91,2.34-11.65,26.84-18.75,45.59c-7.42,19.58-4.42,48.58,5.08,58.46c1.5,4.29,1.5,4.29,1.5,4.29
			l8.5,0.14l4.88-52.69c0,0,3.67-47.31,1.24-50.37c-2.42-3.06-5.24-27.25,0.63-39.25c2.63-13.25,9.25-36,10.75-47.88
			c3.88-3.74,12.88-11,12.88-11l-1.06-28.11c0,0-8.51-6.04-10.82-8.63c-2.43-2.73-4.25-22.13-4.25-22.13l5.27,0.75
			c0,0-10.27-11.5-9.52-14.88c0.75-3.37,0.88-16.12,0.88-16.12l3.87,6.62l-0.75-19.74c0,0,2.75,15.5,12.25,21
			c1-8.26,3.13-25.5,4.5-25s2,6.87,2,6.87s0.37-5.37,3.5-7.63c3.13-2.24,11.13,12.88,10.25,18.26c-0.88,5.37-5.38,12.5-5.38,12.5
			l9.5-5c0,0,0.5,9.12-0.5,10.62c3.13-1.25,7.26-8,12.38-17.12c-0.99,6.38-2.95,16.67-4.01,19.52c1.8-2.91,8.89-14.38,14.89-36.15
			c1.87,4.25,2.62,5.5,4.24,18.37c2.88,0,5-4.37,8.88-15.12c2,5.62,3.62,15.38,3.62,15.38l3.38-2c0,0,4.1875,7.01,5.3175,16.25
			c-0.1-4.56,1.6461-4.1424,2.2261-4.2024c-0.4915,1.1135-3.3206,7.3856-4.5279,11.7433c-0.3651,1.3179-0.8039,2.4188-1.0588,3.0868
			c-1.0166,2.664-4.8269,18.3723-4.8269,18.3723l-19.125,40.375c0,0,8.115,0.375,8.115,1.875s-6.42,36.08-9.12,44.87
			c-2.59,8.44-6.17,10.58-7.17,24.08c0,0,6.79,25.42,6.42,27.42s-7.42,32.58-13.92,49.58c-4.21,18.17-10.58,54.92-3.33,72.67
			c0.08-6.17,0.58-22.5,2.67-25.5c0,0,6.75,21.83,9.91,23.58c3.42,0.25,4.67-0.41,4.67-0.41l1.5-30.34c0,0,2.92-41.33,4.5-44.33
			c-0.42-3.42-3.25-38.5-3.25-38.5l-1.25-8.67l25-75.66l13.5,6.25l9.84,2.8415l-13.84-42.2615l12.08-44.17c0,0,2.67-3.33,3.84-15.5
			c5.16,1.34,12,1.84,14.33,0c-3.83-1.83-12.5-6.5-12.5-6.5S259.691,95.3653,267.0211,89.5353z M42.0211,399.8653
			c0,0-11.6667-24.5,1-66.5c4.3333-22.5,47-87,50.5-89.75S96.0211,300.3653,42.0211,399.8653z" />
			<path class="st12" d="M256.0255,243.75l61.4375,134.375c0,0,20.4375,43.375,14.9375,88.375c-7.75,0-7.5,0-7.5,0
			s-0.3333-30.1667-7.6667-42.1667c-4-12.5-17-43.6667-17-43.6667s16.6667,52,7.5,85.8333c-14.6667,1.6667-5.0833,0.5-5.0833,0.5
			s-19.75-84.75-31.75-98.5C260.9005,350.5,256.0255,243.75,256.0255,243.75z" />
			<path class="st13" d="M260.9427,312.8145c0,0,53.9579,112.6855,43.7079,150.9355c-2,3.25-2,3.25-2,3.25l-17.25,2
			c0,0-26.5-65-29.25-65c-2.75,0,18.75-7,18.75-7s-2.8911-23.3078-4.25-26.25C269.5216,368.3055,261.6505,331.75,260.9427,312.8145z
			" />
			<g id="rubans">
				<path class="st14" d="M117.6506,266.375c0,0-1.125,8.6875-0.3125,11.0625c1.6875-1.3125,1.9375-2.6187,8.0625-4.4312
				c5.9375-0.5,10.4375,3.5063,10.4375,3.5063h2.0625c0,0,1.5-8.8813,1.125-9.0688s-5.625-0.1281-8.5625,0.4969
				S125.6506,270.125,117.6506,266.375z" />
				<path class="st14" d="M184.5568,269.5938c-0.0586-0.0217-1.3906,6.6406-0.0781,8.7031c1.125-1.375,6.3612-3.3458,9.3594-2.6094
				c3.5625,0.875,8,4.3125,8,4.3125l3.6875,1c0,0,1.1788-9.7612,0.375-10c-4.3125-1.2813-7.5625,0.1563-11.6875,1.0313
				C190.3381,272.0313,191.4006,272.125,184.5568,269.5938z" />
			</g>
		</g>
		<g id="sac">
			<path class="st15" d="M128.9853,557.5h223.9968c0.1376,0,0.2495-0.1014,0.2513-0.239c0.0562-4.3918-0.5222-68.1054-2.9356-71.1624
			c-2.4148-3.0587-206.1951,24.98-220.1747,26.8788c-0.4318,0.0587-1.3594,1.3325-1.3657,1.7682l-0.0234,42.4994
			C128.7319,557.3852,128.845,557.5,128.9853,557.5z" />
			<path class="st16" d="M351.2005,490.58c-0.5-5.5-1.43-21.33-8.3-23.83c-18.13-2.5-53.13,2.25-57.5,2.38
			c0.62-1.5-26.54-66.33-26.54-66.33c-0.17-0.95-12.5904,3.2267-17.46,5.22c2.25,0.8701,4.12,66.9901,4.12,66.9901l-7.53,1.25
			c0,0-2.88-58.9901-2.61-68.2401c-1-9.42,0.98-24.48,2.48-31.64c0.58-7.26-1.54-6.88-1.54-6.88c-10.75,9.5-12.75,38.83-13.59,44.5
			c-2.5,3.83-11,53-11.66,64.67c-16.17,0.33-81.67,15.33-81.67,15.33l-0.67,21.5c0,0,79.67-5.83,89-7c-1.83,0.5-0.83,48-0.83,48
			s69,0,88.17,0c1.33-21-9-59.92-9-59.92S342.6205,490.46,351.2005,490.58z M254.9006,473l-4-61.5c4,0.5,21.25,59.5,21.25,59.5
			L254.9006,473z" />
			<circle class="st17" cx="228.7131" cy="495.5313" r="5.1563" />
			<circle class="st17" cx="284.9005" cy="485.6042" r="4.9792" />
			<polygon class="st18" points="241.4006,408.02 250.4023,404.7559 254.9006,473 245.5206,475.01 		" />
			<path class="st19" d="M241.7756,555.25l42-5.75c0,0-0.625-52-5.625-52s-39,4.5-39,4.5L241.7756,555.25z" />
		</g>
		<g id="cheveux_violet">
			<path class="st13" d="M96.427,299.75c0,0-28.7139,97.375-38.4639,115.125c0,0,9.2188-5.6458,10.7188-4.2292
			c1.5,1.4167-22.099,52.7188-22.099,52.7188S31.9006,506.8333,34.4006,523c1.5,16.5,4.7348,27.75,4.7348,27.75
			s49.1655-116.4843,59.571-126.9937c0.7252-0.7325,1.193-1.6855,1.2252-2.7157c0.109-3.4868,0.4691-5.9207,0.4691-5.9207
			l-2.5687-4.2137c0,0-20.716,2.2599-22.2256-11.4063c-1.3482-12.205-0.7854-15.0298-1.6917-20.2227
			c-0.1432-0.8205,0.0934-1.6618,0.6521-2.2795c3.756-4.1524,9.4565-9.921,10.3026-11.9978
			c1.6875-1.6875,3.7656-16.9375,4.9531-25.125c3.2141-7.6751,4.1328-18.625,4.1328-18.625L96.427,299.75z" />
			<path class="st20" d="M142.255,138.3809l11.0856,8.9991l1.06,28.11c0,0-12.2133,10.5833-12.88,11
			c0-2.0833,1.7133-28.8233,1.7133-28.8233S142.5883,144.8809,142.255,138.3809z" />
			<path class="st21" d="M195.6506,173.625c0,0,6.5-0.5,7.25,1.875s-5.3061,38.7346-7.25,42.375
			c-2.5643,4.8021,23.0645-35.1689,26-48.5c2.8369-12.8834,7.1357-42.9591-1.1143-57.8341
			c-0.4538,1.779-2.1435,4.7038-5.6497,20.396c-0.1542,0.6902-0.6354,1.2115-1.0202,1.805
			c-2.3825,3.6748-14.345,15.1748-19.3733,17.5213" />
			<polygon class="st1" points="224.077,295.0029 223.6528,296.2701 224.0535,297.949 		" />
		</g>
		<g id="mains">
			<line class="st22" x1="86.2339" y1="385.5" x2="98.5503" y2="389.5317" />
			<path class="st22" d="M98.1306,411.3269c0,0-6.23-8.6602-4.8967-8.9935c1.3333-0.3333-7,0.6667-7,0.6667s-3.5-4.1667-1-4.8333
			c2.5-0.6667,12.25-6.3333,12.25-6.3333l15.75-8" />
			<polyline class="st22" points="120.0868,376.6964 100.4006,380.8333 89.2339,377 		" />
			<path class="st22" d="M113.4006,372l-6.5,1l-6.5-4.8333l-13.5-4.5c0,0-10.1025,10.9048-12.3338,13.3311
			c-1.5052,1.6367-0.0608,7.9922-0.0608,7.9922l1.1004,14.51c0,0-0.039,13.25,22.2256,11.4063" />
			<path class="st23" d="M113.4006,378" />
			<path class="st23" d="M113.4006,372" />
			<line class="st22" x1="98.1306" y1="391.5049" x2="100.4006" y2="380.8333" />
			<line class="st24" x1="106.9006" y1="373" x2="107.3034" y2="379.3827" />
		</g>
	</g>
</svg>